<?xml version="1.0" encoding="UTF-8"?>
<svg xmlns="http://www.w3.org/2000/svg" width="340" height="512" viewBox="0 0 340 512">
<rect x="0" y="0" width="256" height="512" fill="#ff00ff"/>
<image href="../../data/animal_poodle/animal_poodle.png" x="0" y="0" width="256" height="512"/>
<rect x="0" y="0" width="340" height="20" fill="rgba(0,0,0,0.82)"/>
<text x="4" y="14" fill="#fff" font-family="Consolas, monospace" font-size="12">frames=25 plist=25 rotated=4 missing=0</text>
<g>
<title>animal_poodle_arm_angry.png | nodes=15/34 | rect=219,203,28,53 | rotated=false | sourceSize=28x53 | offset=0,0</title>
<rect x="219" y="203" width="28" height="53" fill="none" stroke="#ff3c3c" stroke-width="2" />

<rect x="214" y="189" width="42" height="14" fill="rgba(0,0,0,0.78)"/>
<text x="216" y="199" fill="#ff3c3c" font-family="Consolas, monospace" font-size="10">#15/34</text>
</g>
<g>
<title>animal_poodle_arm_bend.png | nodes=16/33 | rect=218,258,28,51 | rotated=false | sourceSize=28x51 | offset=0,0</title>
<rect x="218" y="258" width="28" height="51" fill="none" stroke="#3cbeff" stroke-width="2" />

<rect x="214" y="244" width="42" height="14" fill="rgba(0,0,0,0.78)"/>
<text x="216" y="254" fill="#3cbeff" font-family="Consolas, monospace" font-size="10">#16/33</text>
</g>
<g>
<title>animal_poodle_arm_normal.png | nodes=4/12/17/32 | rect=190,213,26,56 | rotated=false | sourceSize=26x56 | offset=0,0</title>
<rect x="190" y="213" width="26" height="56" fill="none" stroke="#50e678" stroke-width="2" />

<rect x="179" y="199" width="77" height="14" fill="rgba(0,0,0,0.78)"/>
<text x="181" y="209" fill="#50e678" font-family="Consolas, monospace" font-size="10">#4/12/17/32</text>
</g>
<g>
<title>animal_poodle_body.png | nodes=6/18 | rect=133,97,84,72 | rotated=false | sourceSize=84x72 | offset=0,0</title>
<rect x="133" y="97" width="84" height="72" fill="none" stroke="#ffd246" stroke-width="2" />

<rect x="133" y="83" width="38" height="14" fill="rgba(0,0,0,0.78)"/>
<text x="135" y="93" fill="#ffd246" font-family="Consolas, monospace" font-size="10">#6/18</text>
</g>
<g>
<title>animal_poodle_ear.png | nodes=5/8/19/28 | rect=130,171,44,58 | rotated=true | sourceSize=44x58 | offset=0,0</title>
<rect x="130" y="171" width="58" height="44" fill="none" stroke="#dc64ff" stroke-width="2" stroke-dasharray="5 3"/>
<path d="M 175 175 l 8 0 l 0 8 M 183 175 q -10 0 -10 10" fill="none" stroke="#dc64ff" stroke-width="2"/>
<rect x="130" y="157" width="98" height="14" fill="rgba(0,0,0,0.78)"/>
<text x="132" y="167" fill="#dc64ff" font-family="Consolas, monospace" font-size="10">#5/8/19/28 ROT</text>
</g>
<g>
<title>animal_poodle_effect_angry01.png | nodes=35 | rect=2,232,126,51 | rotated=false | sourceSize=126x51 | offset=0,0</title>
<rect x="2" y="232" width="126" height="51" fill="none" stroke="#ff8228" stroke-width="2" />

<rect x="2" y="218" width="38" height="14" fill="rgba(0,0,0,0.78)"/>
<text x="4" y="228" fill="#ff8228" font-family="Consolas, monospace" font-size="10">#35</text>
</g>
<g>
<title>animal_poodle_effect_angry02.png | nodes=36 | rect=2,179,126,51 | rotated=false | sourceSize=126x51 | offset=0,0</title>
<rect x="2" y="179" width="126" height="51" fill="none" stroke="#ff3c3c" stroke-width="2" />

<rect x="2" y="165" width="38" height="14" fill="rgba(0,0,0,0.78)"/>
<text x="4" y="175" fill="#ff3c3c" font-family="Consolas, monospace" font-size="10">#36</text>
</g>
<g>
<title>animal_poodle_effect_angry03.png | nodes=37 | rect=2,126,126,51 | rotated=false | sourceSize=126x51 | offset=0,0</title>
<rect x="2" y="126" width="126" height="51" fill="none" stroke="#3cbeff" stroke-width="2" />

<rect x="2" y="112" width="38" height="14" fill="rgba(0,0,0,0.78)"/>
<text x="4" y="122" fill="#3cbeff" font-family="Consolas, monospace" font-size="10">#37</text>
</g>
<g>
<title>animal_poodle_effect_eat01.png | nodes=38 | rect=2,95,129,29 | rotated=false | sourceSize=129x29 | offset=0,0</title>
<rect x="2" y="95" width="129" height="29" fill="none" stroke="#50e678" stroke-width="2" />

<rect x="2" y="81" width="38" height="14" fill="rgba(0,0,0,0.78)"/>
<text x="4" y="91" fill="#50e678" font-family="Consolas, monospace" font-size="10">#38</text>
</g>
<g>
<title>animal_poodle_effect_eat02.png | nodes=39 | rect=2,64,129,29 | rotated=false | sourceSize=129x29 | offset=0,0</title>
<rect x="2" y="64" width="129" height="29" fill="none" stroke="#ffd246" stroke-width="2" />

<rect x="2" y="50" width="38" height="14" fill="rgba(0,0,0,0.78)"/>
<text x="4" y="60" fill="#ffd246" font-family="Consolas, monospace" font-size="10">#39</text>
</g>
<g>
<title>animal_poodle_effect_eat03.png | nodes=40 | rect=2,33,129,29 | rotated=false | sourceSize=129x29 | offset=0,0</title>
<rect x="2" y="33" width="129" height="29" fill="none" stroke="#dc64ff" stroke-width="2" />

<rect x="2" y="19" width="38" height="14" fill="rgba(0,0,0,0.78)"/>
<text x="4" y="29" fill="#dc64ff" font-family="Consolas, monospace" font-size="10">#40</text>
</g>
<g>
<title>animal_poodle_effect_eat04.png | nodes=41 | rect=2,64,129,29 | rotated=false | sourceSize=129x29 | offset=0,0</title>
<rect x="2" y="64" width="129" height="29" fill="none" stroke="#ff8228" stroke-width="2" />

<rect x="2" y="50" width="38" height="14" fill="rgba(0,0,0,0.78)"/>
<text x="4" y="60" fill="#ff8228" font-family="Consolas, monospace" font-size="10">#41</text>
</g>
<g>
<title>animal_poodle_effect_eat05.png | nodes=42 | rect=2,2,129,29 | rotated=false | sourceSize=129x29 | offset=0,0</title>
<rect x="2" y="2" width="129" height="29" fill="none" stroke="#ff3c3c" stroke-width="2" />

<rect x="2" y="0" width="38" height="14" fill="rgba(0,0,0,0.78)"/>
<text x="4" y="10" fill="#ff3c3c" font-family="Consolas, monospace" font-size="10">#42</text>
</g>
<g>
<title>animal_poodle_face.png | nodes=7/20 | rect=133,2,93,96 | rotated=true | sourceSize=93x96 | offset=0,0</title>
<rect x="133" y="2" width="96" height="93" fill="none" stroke="#3cbeff" stroke-width="2" stroke-dasharray="5 3"/>
<path d="M 216 6 l 8 0 l 0 8 M 224 6 q -10 0 -10 10" fill="none" stroke="#3cbeff" stroke-width="2"/>
<rect x="133" y="0" width="63" height="14" fill="rgba(0,0,0,0.78)"/>
<text x="135" y="10" fill="#3cbeff" font-family="Consolas, monospace" font-size="10">#7/20 ROT</text>
</g>
<g>
<title>animal_poodle_face_eye_angry.png | nodes=30 | rect=130,244,53,25 | rotated=false | sourceSize=53x25 | offset=0,0</title>
<rect x="130" y="244" width="53" height="25" fill="none" stroke="#50e678" stroke-width="2" />

<rect x="130" y="230" width="38" height="14" fill="rgba(0,0,0,0.78)"/>
<text x="132" y="240" fill="#50e678" font-family="Consolas, monospace" font-size="10">#30</text>
</g>
<g>
<title>animal_poodle_face_eye_close.png | nodes=21 | rect=231,57,59,21 | rotated=true | sourceSize=59x21 | offset=0,0</title>
<rect x="231" y="57" width="21" height="59" fill="none" stroke="#ffd246" stroke-width="2" stroke-dasharray="5 3"/>
<path d="M 239 61 l 8 0 l 0 8 M 247 61 q -10 0 -10 10" fill="none" stroke="#ffd246" stroke-width="2"/>
<rect x="207" y="43" width="49" height="14" fill="rgba(0,0,0,0.78)"/>
<text x="209" y="53" fill="#ffd246" font-family="Consolas, monospace" font-size="10">#21 ROT</text>
</g>
<g>
<title>animal_poodle_face_eye_normal.png | nodes=10/24 | rect=130,217,53,25 | rotated=false | sourceSize=53x25 | offset=0,0</title>
<rect x="130" y="217" width="53" height="25" fill="none" stroke="#dc64ff" stroke-width="2" />

<rect x="130" y="203" width="42" height="14" fill="rgba(0,0,0,0.78)"/>
<text x="132" y="213" fill="#dc64ff" font-family="Consolas, monospace" font-size="10">#10/24</text>
</g>
<g>
<title>animal_poodle_face_eye_smile.png | nodes=23 | rect=130,271,52,13 | rotated=false | sourceSize=52x13 | offset=0,0</title>
<rect x="130" y="271" width="52" height="13" fill="none" stroke="#ff8228" stroke-width="2" />

<rect x="130" y="257" width="38" height="14" fill="rgba(0,0,0,0.78)"/>
<text x="132" y="267" fill="#ff8228" font-family="Consolas, monospace" font-size="10">#23</text>
</g>
<g>
<title>animal_poodle_face_mouth_angry.png | nodes=31 | rect=184,271,25,26 | rotated=true | sourceSize=25x26 | offset=0,0</title>
<rect x="184" y="271" width="26" height="25" fill="none" stroke="#ff3c3c" stroke-width="2" stroke-dasharray="5 3"/>
<path d="M 197 275 l 8 0 l 0 8 M 205 275 q -10 0 -10 10" fill="none" stroke="#ff3c3c" stroke-width="2"/>
<rect x="184" y="257" width="49" height="14" fill="rgba(0,0,0,0.78)"/>
<text x="186" y="267" fill="#ff3c3c" font-family="Consolas, monospace" font-size="10">#31 ROT</text>
</g>
<g>
<title>animal_poodle_face_mouth_eat01.png | nodes=25 | rect=219,148,32,25 | rotated=false | sourceSize=32x25 | offset=0,0</title>
<rect x="219" y="148" width="32" height="25" fill="none" stroke="#3cbeff" stroke-width="2" />

<rect x="214" y="134" width="38" height="14" fill="rgba(0,0,0,0.78)"/>
<text x="216" y="144" fill="#3cbeff" font-family="Consolas, monospace" font-size="10">#25</text>
</g>
<g>
<title>animal_poodle_face_mouth_eat02.png | nodes=26 | rect=219,175,29,26 | rotated=false | sourceSize=29x26 | offset=0,0</title>
<rect x="219" y="175" width="29" height="26" fill="none" stroke="#50e678" stroke-width="2" />

<rect x="214" y="161" width="38" height="14" fill="rgba(0,0,0,0.78)"/>
<text x="216" y="171" fill="#50e678" font-family="Consolas, monospace" font-size="10">#26</text>
</g>
<g>
<title>animal_poodle_face_mouth_normal.png | nodes=11/27 | rect=231,34,23,21 | rotated=false | sourceSize=23x21 | offset=0,0</title>
<rect x="231" y="34" width="23" height="21" fill="none" stroke="#ffd246" stroke-width="2" />

<rect x="214" y="20" width="42" height="14" fill="rgba(0,0,0,0.78)"/>
<text x="216" y="30" fill="#ffd246" font-family="Consolas, monospace" font-size="10">#11/27</text>
</g>
<g>
<title>animal_poodle_face_mouth_smile.png | nodes=22 | rect=231,2,23,30 | rotated=false | sourceSize=23x30 | offset=0,0</title>
<rect x="231" y="2" width="23" height="30" fill="none" stroke="#dc64ff" stroke-width="2" />

<rect x="214" y="0" width="38" height="14" fill="rgba(0,0,0,0.78)"/>
<text x="216" y="10" fill="#dc64ff" font-family="Consolas, monospace" font-size="10">#22</text>
</g>
<g>
<title>animal_poodle_leg.png | nodes=2/3/13/14 | rect=190,171,27,40 | rotated=false | sourceSize=27x40 | offset=0,0</title>
<rect x="190" y="171" width="27" height="40" fill="none" stroke="#ff8228" stroke-width="2" />

<rect x="186" y="157" width="70" height="14" fill="rgba(0,0,0,0.78)"/>
<text x="188" y="167" fill="#ff8228" font-family="Consolas, monospace" font-size="10">#2/3/13/14</text>
</g>
<g>
<title>animal_poodle_ribbon.png | nodes=9/29 | rect=219,118,34,28 | rotated=false | sourceSize=34x28 | offset=0,0</title>
<rect x="219" y="118" width="34" height="28" fill="none" stroke="#ff3c3c" stroke-width="2" />

<rect x="214" y="104" width="38" height="14" fill="rgba(0,0,0,0.78)"/>
<text x="216" y="114" fill="#ff3c3c" font-family="Consolas, monospace" font-size="10">#9/29</text>
</g>
</svg>
